<svg width="32" height="32" viewBox="0 0 32 32" fill="none" xmlns="http://www.w3.org/2000/svg">
<path d="M16.0013 2C12.1991 2 11.7219 2.01663 10.2286 2.08458C8.73815 2.15283 7.72081 2.38879 6.83063 2.735C5.90983 3.09258 5.12874 3.57092 4.35057 4.34938C3.57181 5.12754 3.09347 5.90862 2.73472 6.82912C2.38763 7.71958 2.15138 8.73721 2.08429 10.227C2.0175 11.7204 2 12.1978 2 16C2 19.8022 2.01692 20.2779 2.08458 21.7712C2.15313 23.2616 2.38909 24.279 2.73501 25.1691C3.09289 26.0899 3.57122 26.871 4.34969 27.6492C5.12757 28.4279 5.90867 28.9074 6.82888 29.265C7.71964 29.6112 8.73728 29.8472 10.2274 29.9154C11.7208 29.9834 12.1976 30 15.9996 30C19.8021 30 20.2778 29.9834 21.7711 29.9154C23.2616 29.8472 24.2801 29.6112 25.1708 29.265C26.0913 28.9074 26.8713 28.4279 27.6491 27.6492C28.4279 26.871 28.9062 26.0899 29.265 25.1694C29.6092 24.279 29.8454 23.2613 29.9154 21.7715C29.9825 20.2782 30 19.8022 30 16C30 12.1978 29.9825 11.7207 29.9154 10.2273C29.8454 8.73692 29.6092 7.71958 29.265 6.82942C28.9062 5.90862 28.4279 5.12754 27.6491 4.34938C26.8704 3.57063 26.0916 3.09229 25.17 2.735C24.2774 2.38879 23.2595 2.15283 21.7691 2.08458C20.2757 2.01663 19.8003 2 15.9969 2H16.0013ZM14.7454 4.52292C15.1181 4.52233 15.5341 4.52292 16.0013 4.52292C19.7393 4.52292 20.1824 4.53633 21.6585 4.60342C23.0236 4.66583 23.7644 4.89392 24.2579 5.08554C24.9112 5.33929 25.377 5.64262 25.8667 6.13262C26.3568 6.62262 26.6601 7.08929 26.9144 7.74262C27.1061 8.23554 27.3344 8.97637 27.3966 10.3414C27.4636 11.8172 27.4782 12.2605 27.4782 15.9968C27.4782 19.733 27.4636 20.1764 27.3966 21.6522C27.3341 23.0172 27.1061 23.758 26.9144 24.251C26.6607 24.9043 26.3568 25.3695 25.8667 25.8592C25.3767 26.3492 24.9115 26.6525 24.2579 26.9063C23.765 27.0988 23.0236 27.3263 21.6585 27.3887C20.1827 27.4558 19.7393 27.4704 16.0013 27.4704C12.263 27.4704 11.8199 27.4558 10.3441 27.3887C8.97907 27.3257 8.23823 27.0976 7.74443 26.906C7.09109 26.6522 6.62442 26.3489 6.13442 25.8589C5.64441 25.3689 5.34108 24.9034 5.08674 24.2498C4.89511 23.7569 4.66674 23.016 4.60461 21.651C4.53753 20.1752 4.52411 19.7319 4.52411 15.9933C4.52411 12.2547 4.53753 11.8137 4.60461 10.3379C4.66703 8.97288 4.89511 8.23204 5.08674 7.73854C5.34049 7.08521 5.64441 6.61854 6.13442 6.12854C6.62442 5.63854 7.09109 5.33521 7.74443 5.08087C8.23794 4.88837 8.97907 4.66088 10.3441 4.59817C11.6356 4.53983 12.1361 4.52233 14.7454 4.51942V4.52292ZM23.4745 6.8475C22.547 6.8475 21.7945 7.59912 21.7945 8.52692C21.7945 9.45442 22.547 10.2069 23.4745 10.2069C24.402 10.2069 25.1545 9.45442 25.1545 8.52692C25.1545 7.59942 24.402 6.84692 23.4745 6.84692V6.8475ZM16.0013 8.81042C12.0308 8.81042 8.81165 12.0295 8.81165 16C8.81165 19.9705 12.0308 23.1881 16.0013 23.1881C19.9718 23.1881 23.1898 19.9705 23.1898 16C23.1898 12.0295 19.9718 8.81042 16.0013 8.81042ZM16.0013 11.3333C18.5785 11.3333 20.668 13.4225 20.668 16C20.668 18.5772 18.5785 20.6667 16.0013 20.6667C13.4238 20.6667 11.3346 18.5772 11.3346 16C11.3346 13.4225 13.4238 11.3333 16.0013 11.3333Z" fill="black"/>
</svg>
