<svg width="32" height="32" viewBox="0 0 32 32" fill="none" xmlns="http://www.w3.org/2000/svg">
<path d="M2.11711 15.8744C2.11627 18.3196 2.75809 20.7068 3.97812 22.8108L2 30L9.39123 28.0708C11.4278 29.1763 13.7204 29.759 16.0538 29.7599H16.0598C23.7436 29.7599 29.9991 23.5349 30.0023 15.8852C30.0036 12.1775 28.5544 8.69154 25.9223 6.06909C23.2897 3.44665 19.7894 2.0016 16.0598 2C8.37437 2 2.12009 8.22386 2.11688 15.874M6.51842 22.4483L6.24252 22.012C5.08233 20.1759 4.47 18.0538 4.47085 15.875C4.47338 9.51672 9.67176 4.34344 16.0639 4.34344C19.1594 4.34464 22.0686 5.54592 24.2569 7.72545C26.445 9.90515 27.649 12.8027 27.6481 15.884C27.6453 22.2427 22.4468 27.4164 16.0595 27.4164H16.055C13.9752 27.4152 11.9356 26.8595 10.1568 25.8087L9.73341 25.5589L5.34714 26.7037L6.51842 22.4483ZM16.0598 29.7599C16.0595 29.7599 16.0596 29.7599 16.0598 29.7599V29.7599Z" fill="black"/>
<path fill-rule="evenodd" clip-rule="evenodd" d="M12.5602 10.2275C12.3021 9.66521 12.0305 9.65396 11.785 9.64407C11.5841 9.63569 11.3543 9.63624 11.1248 9.63624C10.8951 9.63624 10.5219 9.72074 10.2063 10.0586C9.89041 10.3965 9.00046 11.2133 9.00046 12.8744C9.00046 14.5358 10.235 16.141 10.407 16.3665C10.5793 16.5915 12.7903 20.1096 16.2914 21.4628C19.2015 22.5876 19.7937 22.3639 20.4253 22.3075C21.0569 22.2513 22.4635 21.491 22.7504 20.7026C23.0376 19.9142 23.0376 19.2385 22.9515 19.0973C22.8654 18.9566 22.6356 18.8721 22.2911 18.7034C21.9465 18.5345 20.253 17.7176 19.9373 17.6049C19.6214 17.4924 19.3917 17.4362 19.162 17.7742C18.9323 18.1118 18.2726 18.8721 18.0715 19.0973C17.8706 19.323 17.6696 19.3511 17.3251 19.1823C16.9805 19.0128 15.871 18.6566 14.5548 17.5065C13.5307 16.6116 12.8394 15.5064 12.6383 15.1683C12.4374 14.8307 12.6169 14.6478 12.7896 14.4795C12.9444 14.3282 13.1342 14.0853 13.3065 13.8882C13.4784 13.691 13.5357 13.5503 13.6505 13.3251C13.7655 13.0997 13.708 12.9025 13.6219 12.7336C13.5357 12.5648 12.8665 10.8952 12.5602 10.2275Z" fill="black"/>
</svg>
