<svg width="32" height="32" viewBox="0 0 32 32" fill="none" xmlns="http://www.w3.org/2000/svg">
<g clip-path="url(#clip0_74_100)">
<path fill-rule="evenodd" clip-rule="evenodd" d="M12.7815 20.1378V11.1589C15.969 12.6588 18.4377 14.1077 21.3575 15.6699C18.9493 17.0054 15.969 18.5039 12.7815 20.1378ZM30.5456 6.6933C29.9958 5.96889 29.0586 5.40499 28.0609 5.2183C25.1284 4.66142 6.83358 4.65984 3.90264 5.2183C3.10257 5.36829 2.39014 5.73082 1.77813 6.29408C-0.80058 8.68752 0.00746589 21.5228 0.629035 23.6019C0.890411 24.5018 1.2283 25.1509 1.65384 25.5769C2.20209 26.1401 2.95275 26.528 3.81497 26.7019C6.22953 27.2013 18.6689 27.4806 28.0099 26.7769C28.8706 26.6269 29.6324 26.2266 30.2332 25.6394C32.6175 23.2555 32.4549 9.69946 30.5456 6.6933Z" fill="black"/>
</g>
<defs>
<clipPath id="clip0_74_100">
<rect width="32" height="32" fill="white"/>
</clipPath>
</defs>
</svg>
